<svg width="134" height="91" viewBox="0 0 134 91" fill="none" xmlns="http://www.w3.org/2000/svg">
<g clip-path="url(#clip0_251_460)">
<path d="M1.48844 90.8061C1.19572 90.7084 0.929178 90.538 0.710938 90.3091L0.973229 89.8568C1.16867 90.0737 1.41164 90.2359 1.68048 90.329C1.98011 90.4477 2.2974 90.5083 2.61723 90.5079C2.99909 90.5266 3.37795 90.4283 3.70854 90.2246C3.83778 90.1456 3.94437 90.0307 4.01695 89.8925C4.08954 89.7542 4.1254 89.5976 4.12071 89.4394C4.12359 89.3585 4.11142 89.2778 4.0849 89.2019C4.05838 89.126 4.01803 89.0564 3.96615 88.997C3.85636 88.8776 3.72383 88.7844 3.5774 88.7237C3.37053 88.6358 3.15948 88.5595 2.94509 88.4951C2.68259 88.4164 2.42456 88.3218 2.17227 88.2118C1.97645 88.1236 1.80427 87.9853 1.67111 87.8092C1.52412 87.6118 1.44927 87.3647 1.46034 87.1134C1.45453 86.8007 1.54679 86.4947 1.72263 86.2437C1.90975 85.9884 2.15922 85.7925 2.44393 85.6771C2.78342 85.5406 3.14412 85.4731 3.50714 85.4783C3.80299 85.4785 4.0975 85.5203 4.383 85.6026C4.63651 85.6701 4.87621 85.7863 5.09025 85.9455L4.86543 86.4127C4.67379 86.2618 4.45797 86.1489 4.22844 86.0797C3.9849 86.0051 3.7325 85.9683 3.47904 85.9703C3.09869 85.9491 2.72127 86.0514 2.39709 86.2636C2.26998 86.3472 2.16557 86.4645 2.09413 86.6039C2.02268 86.7433 1.98666 86.9001 1.98961 87.0587C1.98573 87.1424 1.99783 87.2261 2.0252 87.3046C2.05257 87.3832 2.09463 87.4551 2.14885 87.516C2.26119 87.6392 2.39688 87.7358 2.54697 87.7993C2.75496 87.8885 2.96765 87.9648 3.18396 88.0279C3.44495 88.1065 3.70142 88.2011 3.9521 88.3112C4.14198 88.4009 4.31134 88.5332 4.44858 88.6988C4.59121 88.8869 4.66446 89.1236 4.65466 89.3648C4.66123 89.6815 4.56719 89.9914 4.38769 90.2445C4.19417 90.5001 3.93817 90.6944 3.64765 90.8061C3.30146 90.9414 2.93456 91.0071 2.56571 90.9999C2.19879 91.0015 1.83438 90.9359 1.48844 90.8061Z" fill="black"/>
<path d="M7.83951 90.7765C7.58535 90.6489 7.37203 90.445 7.22594 90.1901C7.07985 89.9106 7.00555 89.5952 7.01048 89.2756C7.0061 88.8442 7.10437 88.4185 7.29619 88.0381C7.48028 87.6782 7.75413 87.3791 8.08775 87.1733C8.43562 86.9628 8.83016 86.8547 9.23059 86.8602C9.69563 86.8335 10.1523 86.9991 10.5046 87.3224C10.6621 87.4848 10.7854 87.6809 10.8661 87.8977C10.9469 88.1145 10.9833 88.347 10.9729 88.5798C10.9802 89.0132 10.8818 89.4412 10.6872 89.8223C10.5016 90.1859 10.2221 90.4859 9.88163 90.6871C9.53402 90.8983 9.1393 91.0064 8.73879 91.0002C8.42653 91.0026 8.11823 90.926 7.83951 90.7765ZM9.64744 90.2796C9.90127 90.1154 10.1072 89.8797 10.2423 89.5987C10.3906 89.2914 10.4647 88.9498 10.4577 88.6047C10.4671 88.4329 10.4423 88.261 10.3851 88.1C10.3278 87.939 10.2392 87.7926 10.1252 87.6703C9.99738 87.5521 9.84884 87.4619 9.68809 87.4047C9.52734 87.3476 9.35754 87.3247 9.18843 87.3373C8.88687 87.3318 8.5899 87.4162 8.3313 87.5809C8.0794 87.7497 7.87416 87.9864 7.73647 88.2667C7.58811 88.574 7.51407 88.9156 7.52101 89.2607C7.51201 89.4317 7.53696 89.6028 7.59425 89.7629C7.65153 89.923 7.73988 90.0685 7.85356 90.1901C8.11221 90.4278 8.4489 90.5475 8.79031 90.5231C9.09341 90.5206 9.38998 90.4294 9.64744 90.2597V90.2796Z" fill="black"/>
<path d="M14.2985 85.2197H14.8184L13.7364 90.97H13.2212L14.2985 85.2197Z" fill="black"/>
<path d="M21.0053 86.8748L20.2372 90.9501H19.7407L19.8672 90.2991C19.6867 90.528 19.4588 90.7095 19.2012 90.8294C18.9436 90.9492 18.6634 91.0042 18.3824 90.9899C18.0165 91.0137 17.656 90.8874 17.3754 90.637C17.2501 90.5097 17.1529 90.3545 17.0905 90.1827C17.0282 90.0109 17.0023 89.8267 17.0148 89.643C17.0155 89.4896 17.0296 89.3365 17.0569 89.1858L17.4925 86.8599H18.0124L17.5815 89.1957C17.5573 89.315 17.5448 89.4366 17.544 89.5585C17.536 89.6855 17.5536 89.8127 17.5956 89.9318C17.6376 90.051 17.703 90.1592 17.7876 90.2494C17.9956 90.4243 18.2582 90.5095 18.5229 90.4879C18.892 90.5023 19.2534 90.3733 19.5393 90.1251C19.8254 89.8441 20.0149 89.4698 20.0779 89.0616L20.4854 86.8698L21.0053 86.8748Z" fill="black"/>
<path d="M24.078 90.7761C23.8228 90.6503 23.609 90.446 23.4645 90.1897C23.3163 89.9111 23.2418 89.5951 23.249 89.2752C23.243 88.8442 23.3396 88.4185 23.53 88.0377C23.7158 87.6775 23.9912 87.3783 24.3263 87.1729C24.6787 86.961 25.0781 86.8529 25.4832 86.8598C25.8063 86.8473 26.1275 86.9172 26.4199 87.0636C26.6716 87.1993 26.8788 87.4123 27.0148 87.6749L26.5792 87.9433C26.4643 87.7419 26.2985 87.5788 26.1006 87.4725C25.9027 87.3662 25.6807 87.3209 25.4597 87.3419C25.1583 87.3377 24.8617 87.4219 24.6026 87.5854C24.3483 87.7526 24.1411 87.9896 24.0031 88.2713C23.8558 88.579 23.7819 88.9202 23.7876 89.2653C23.7786 89.4363 23.8036 89.6074 23.8609 89.7675C23.9182 89.9276 24.0065 90.0731 24.1202 90.1947C24.3803 90.4296 24.7159 90.5489 25.0569 90.5276C25.2944 90.5309 25.5295 90.4783 25.7455 90.3736C25.9539 90.28 26.1351 90.129 26.27 89.9362L26.6401 90.2394C26.464 90.489 26.23 90.6859 25.9609 90.8109C25.6659 90.9488 25.3465 91.0182 25.0242 91.0147C24.6954 91.0162 24.371 90.9344 24.078 90.7761Z" fill="black"/>
<path d="M29.7456 86.875H30.2655L29.5067 90.9504H28.9868L29.7456 86.875ZM29.9751 85.881C29.9123 85.8134 29.877 85.7224 29.8767 85.6275C29.8747 85.5711 29.8838 85.5148 29.9034 85.4622C29.923 85.4097 29.9527 85.362 29.9905 85.3223C30.0284 85.2825 30.0737 85.2516 30.1234 85.2314C30.1732 85.2113 30.2263 85.2023 30.2795 85.2051C30.375 85.2023 30.4677 85.2398 30.5371 85.3095C30.5681 85.3409 30.5928 85.3787 30.6097 85.4206C30.6266 85.4624 30.6354 85.5075 30.6355 85.553C30.6374 85.6106 30.6282 85.6679 30.6085 85.7216C30.5888 85.7753 30.5589 85.8241 30.5207 85.865C30.4826 85.906 30.4369 85.9382 30.3866 85.9598C30.3362 85.9813 30.2823 85.9917 30.228 85.9903C30.1806 85.9919 30.1334 85.9824 30.0897 85.9627C30.046 85.9429 30.0069 85.9134 29.9751 85.876V85.881Z" fill="black"/>
<path d="M33.3331 90.7762C33.0776 90.6456 32.8653 90.4359 32.7242 90.1749C32.576 89.8962 32.5016 89.5803 32.5088 89.2604C32.5027 88.8294 32.5994 88.4037 32.7898 88.0229C32.9742 87.6616 33.2499 87.3621 33.586 87.1581C33.9334 86.9462 34.3283 86.838 34.7289 86.845C35.1939 86.8187 35.6504 86.9844 36.0029 87.3072C36.1607 87.4694 36.2841 87.6655 36.3648 87.8823C36.4456 88.0991 36.4819 88.3317 36.4712 88.5646C36.4779 88.9973 36.3812 89.4247 36.1902 89.8071C36.0074 90.1708 35.7313 90.4723 35.394 90.6768C35.0466 90.8887 34.6517 90.9969 34.2511 90.9899C33.9333 90.9986 33.6183 90.9253 33.3331 90.7762ZM35.1457 90.2792C35.3985 90.1136 35.6041 89.8783 35.7406 89.5983C35.8868 89.2903 35.9607 88.9493 35.956 88.6044C35.9645 88.4327 35.9394 88.261 35.8821 88.1002C35.8249 87.9393 35.7368 87.7929 35.6235 87.67C35.3643 87.4332 35.028 87.3137 34.6867 87.337C34.3852 87.3315 34.0882 87.4158 33.8296 87.5805C33.5777 87.7494 33.3725 87.986 33.2348 88.2664C33.0886 88.5745 33.0147 88.9155 33.0193 89.2604C33.0103 89.4314 33.0353 89.6025 33.0925 89.7626C33.1498 89.9227 33.2382 90.0682 33.3519 90.1898C33.611 90.4266 33.9473 90.5461 34.2886 90.5228C34.5916 90.5195 34.888 90.4284 35.1457 90.2593V90.2792Z" fill="black"/>
<path d="M42.3634 87.2079C42.4884 87.3355 42.5855 87.4906 42.6478 87.6624C42.7101 87.8341 42.7362 88.0183 42.724 88.2019C42.7231 88.357 42.709 88.5117 42.6819 88.6641L42.2416 90.9801H41.7311L42.1714 88.6591C42.1931 88.5361 42.2056 88.4115 42.2088 88.2864C42.2165 88.1601 42.1978 88.0336 42.1541 87.9159C42.1103 87.7982 42.0427 87.6922 41.9559 87.6055C41.7435 87.4362 41.481 87.3533 41.2159 87.3719C40.8445 87.3564 40.4804 87.4835 40.1901 87.7297C39.9029 88.0118 39.7132 88.3881 39.6515 88.7983L39.244 90.9801H38.7241L39.4829 86.9047H39.9794L39.8576 87.5558C40.0434 87.3291 40.2753 87.1501 40.5357 87.0322C40.7961 86.9142 41.0783 86.8605 41.3611 86.8749C41.7226 86.8498 42.0799 86.9685 42.3634 87.2079Z" fill="black"/>
<path d="M45.7497 89.0666C45.7464 89.1212 45.7464 89.176 45.7497 89.2306C45.7386 89.404 45.7626 89.578 45.8199 89.7408C45.8773 89.9036 45.9667 90.0516 46.0822 90.1749C46.3603 90.4137 46.7137 90.5311 47.0705 90.5029C47.3135 90.5049 47.5549 90.4594 47.7824 90.3687C47.9879 90.2877 48.1736 90.1586 48.3257 89.991L48.5599 90.3836C48.3702 90.5854 48.1395 90.7383 47.8855 90.8309C47.6107 90.9367 47.3206 90.9905 47.0283 90.99C46.5516 91.0188 46.0826 90.8535 45.7169 90.5278C45.5575 90.3637 45.4332 90.1651 45.3524 89.9456C45.2716 89.7261 45.2361 89.4907 45.2485 89.2554C45.2416 88.8271 45.3349 88.4036 45.5202 88.0229C45.6933 87.6661 45.9559 87.3668 46.2789 87.1581C46.6098 86.9479 46.9893 86.8395 47.3749 86.845C47.5966 86.8332 47.8183 86.868 48.0272 86.9473C48.2362 87.0266 48.4284 87.1489 48.5927 87.3072C48.7498 87.4721 48.8726 87.67 48.9533 87.8883C49.034 88.1066 49.0707 88.3403 49.0611 88.5746C49.0589 88.7416 49.0417 88.908 49.0096 89.0716L45.7497 89.0666ZM46.3539 87.675C46.0722 87.9341 45.8767 88.2827 45.7965 88.669H48.5365C48.5397 88.6193 48.5397 88.5695 48.5365 88.5199C48.5452 88.3561 48.5204 88.1922 48.4638 88.0395C48.4072 87.8868 48.3202 87.7489 48.2086 87.6352C47.9643 87.4135 47.6492 87.2996 47.3281 87.3172C46.9734 87.3083 46.6275 87.4353 46.3539 87.675Z" fill="black"/>
<path d="M51.5062 90.8509C51.2693 90.7815 51.049 90.6595 50.8599 90.4931L51.1081 90.0607C51.2771 90.2094 51.4732 90.3194 51.6842 90.3838C51.9276 90.468 52.1823 90.51 52.4383 90.508C52.7303 90.5274 53.0217 90.4621 53.2814 90.3191C53.3726 90.2675 53.4486 90.19 53.5007 90.0952C53.5528 90.0004 53.579 89.8921 53.5764 89.7824C53.5782 89.724 53.5682 89.6659 53.5472 89.612C53.5262 89.558 53.4947 89.5094 53.4547 89.4693C53.3687 89.3902 53.2683 89.331 53.1596 89.2953C52.992 89.2375 52.8216 89.1894 52.6491 89.1512C52.4284 89.1054 52.2109 89.044 51.998 88.9673C51.8366 88.9085 51.6917 88.8077 51.5765 88.6741C51.4523 88.5195 51.3886 88.3203 51.3985 88.1175C51.3969 87.9333 51.4389 87.7517 51.5208 87.5893C51.6026 87.4269 51.7216 87.2889 51.8669 87.1881C52.2274 86.9418 52.6517 86.8218 53.08 86.8451C53.3253 86.8446 53.5696 86.8797 53.8059 86.9495C54.0094 86.9988 54.2029 87.0864 54.3774 87.208L54.1619 87.6503C54.0058 87.5328 53.8314 87.4453 53.6467 87.3918C53.4471 87.3319 53.2406 87.3018 53.0331 87.3024C52.7493 87.2871 52.4672 87.356 52.2182 87.5012C52.1278 87.5565 52.0529 87.6363 52.0011 87.7323C51.9493 87.8283 51.9223 87.9372 51.9231 88.0479C51.9206 88.1083 51.9306 88.1685 51.9524 88.2243C51.9743 88.2802 52.0074 88.3302 52.0495 88.3709C52.1386 88.4567 52.244 88.5211 52.3587 88.5598C52.4851 88.5995 52.6537 88.6443 52.8692 88.689C53.0846 88.7337 53.3376 88.8133 53.5062 88.8729C53.6674 88.9297 53.8124 89.0289 53.9277 89.1611C54.0489 89.3114 54.1109 89.5054 54.101 89.7029C54.1061 89.8884 54.0656 90.0721 53.9835 90.2359C53.9014 90.3997 53.7805 90.538 53.6326 90.6372C53.262 90.8796 52.831 90.9974 52.3961 90.9752C52.0952 90.9833 51.7949 90.9414 51.5062 90.8509Z" fill="black"/>
<path d="M60.4191 89.0668C60.4159 89.1214 60.4159 89.1762 60.4191 89.2308C60.4081 89.4042 60.432 89.5782 60.4894 89.741C60.5467 89.9038 60.6361 90.0518 60.7516 90.1751C61.0309 90.4152 61.3863 90.5325 61.7446 90.5031C61.9876 90.5046 62.2289 90.4592 62.4565 90.3689C62.6614 90.2865 62.8468 90.1576 62.9998 89.9912L63.234 90.3838C63.0427 90.5834 62.8125 90.7361 62.5596 90.8311C62.2833 90.9373 61.9916 90.9912 61.6978 90.9902C61.2211 91.019 60.752 90.8537 60.3863 90.528C60.2269 90.3639 60.1026 90.1653 60.0218 89.9458C59.941 89.7263 59.9056 89.4909 59.9179 89.2556C59.9126 88.8269 60.0076 88.4034 60.1943 88.0231C60.37 87.6592 60.6392 87.3555 60.9707 87.1471C61.3022 86.9386 61.6826 86.834 62.0678 86.8452C62.2895 86.8329 62.5113 86.8674 62.7204 86.9467C62.9294 87.0261 63.1215 87.1487 63.2856 87.3074C63.4436 87.4715 63.5671 87.6694 63.6478 87.8878C63.7285 88.1063 63.7647 88.3404 63.7539 88.5748C63.7518 88.7418 63.7345 88.9082 63.7024 89.0718L60.4191 89.0668ZM61.0233 87.6752C60.7431 87.9348 60.5492 88.2834 60.4706 88.6692H63.2106C63.2134 88.6195 63.2134 88.5697 63.2106 88.5201C63.2202 88.3562 63.1959 88.192 63.1392 88.0391C63.0826 87.8863 62.995 87.7485 62.8828 87.6354C62.6404 87.4135 62.3266 87.2996 62.0069 87.3174C61.6492 87.3078 61.3002 87.4348 61.0233 87.6752Z" fill="black"/>
<path d="M69.5901 87.208C69.7151 87.3356 69.8122 87.4907 69.8745 87.6625C69.9368 87.8342 69.9628 88.0184 69.9507 88.202C69.9504 88.3574 69.9347 88.5123 69.9039 88.6642L69.4683 90.9802H68.9484L69.3887 88.6592C69.4103 88.5362 69.4229 88.4116 69.4261 88.2865C69.4338 88.1602 69.4151 88.0338 69.3713 87.9161C69.3276 87.7984 69.26 87.6924 69.1732 87.6056C68.9594 87.4356 68.6951 87.3527 68.4285 87.372C68.0586 87.3564 67.6958 87.4836 67.4074 87.7299C67.1201 88.012 66.9305 88.3883 66.8688 88.7984L66.4566 90.9802H65.9414L66.7002 86.9048H67.1967L67.0702 87.5559C67.2565 87.3286 67.4891 87.1491 67.7504 87.0312C68.0117 86.9132 68.2948 86.8598 68.5784 86.875C68.943 86.8474 69.3041 86.9662 69.5901 87.208Z" fill="black"/>
<path d="M82.4238 85.5278L81.4027 90.9501H80.8828L81.6931 86.651L79.0514 90.2642H78.7938L77.4262 86.5815L76.6112 90.9501H76.0913L77.1124 85.5278H77.5526L79.028 89.5585L81.9507 85.5278H82.4238Z" fill="black"/>
<path d="M85.337 90.7762C85.0815 90.6456 84.8693 90.4359 84.7281 90.1749C84.5799 89.8962 84.5055 89.5803 84.5127 89.2604C84.5049 88.8285 84.6034 88.402 84.7984 88.0229C84.9811 87.6619 85.2553 87.3624 85.5899 87.1581C85.9373 86.9462 86.3322 86.838 86.7328 86.845C87.1978 86.8187 87.6543 86.9844 88.0068 87.3072C88.1646 87.4694 88.288 87.6655 88.3688 87.8823C88.4495 88.0991 88.4858 88.3317 88.4751 88.5646C88.4818 88.9973 88.3851 89.4247 88.1941 89.8071C88.0113 90.1708 87.7353 90.4723 87.3979 90.6768C87.052 90.8881 86.6588 90.9962 86.2597 90.9899C85.9404 90.9985 85.6239 90.9252 85.337 90.7762ZM87.1496 90.2792C87.4024 90.1136 87.608 89.8783 87.7445 89.5983C87.8907 89.2903 87.9646 88.9493 87.9599 88.6044C87.9684 88.4327 87.9433 88.261 87.886 88.1002C87.8288 87.9393 87.7407 87.7929 87.6274 87.67C87.3687 87.4323 87.0321 87.3126 86.6906 87.337C86.3906 87.3321 86.0953 87.4165 85.8382 87.5805C85.5851 87.7479 85.3795 87.9849 85.2433 88.2664C85.095 88.5737 85.021 88.9152 85.0279 89.2604C85.018 89.4315 85.0425 89.6028 85.0999 89.7631C85.1572 89.9233 85.246 90.0688 85.3604 90.1898C85.4882 90.308 85.6368 90.3982 85.7975 90.4554C85.9583 90.5125 86.1281 90.5354 86.2972 90.5228C86.6034 90.5218 86.9034 90.4306 87.1637 90.2593L87.1496 90.2792Z" fill="black"/>
<path d="M94.606 86.875L92.1377 90.9504H91.6037L90.667 86.875H91.1869L91.9831 90.354L94.0768 86.875H94.606Z" fill="black"/>
<path d="M96.9199 86.8751H97.4398L96.681 90.9505H96.1611L96.9199 86.8751ZM97.1494 85.8811C97.0866 85.8135 97.0513 85.7226 97.051 85.6277C97.0499 85.5718 97.0593 85.5162 97.0786 85.4641C97.0979 85.4121 97.1267 85.3646 97.1635 85.3245C97.2045 85.2854 97.2528 85.256 97.3052 85.238C97.3577 85.22 97.4131 85.2139 97.4679 85.2201C97.5145 85.2183 97.561 85.2266 97.6045 85.2445C97.648 85.2625 97.6876 85.2897 97.7208 85.3245C97.7531 85.3552 97.779 85.3927 97.7967 85.4346C97.8145 85.4766 97.8237 85.522 97.8239 85.568C97.8258 85.6256 97.8166 85.683 97.7969 85.7366C97.7771 85.7903 97.7473 85.8391 97.7091 85.8801C97.6709 85.921 97.6253 85.9533 97.575 85.9748C97.5246 85.9964 97.4706 86.0068 97.4164 86.0054C97.3655 86.0073 97.3148 85.9967 97.2685 85.9742C97.2222 85.9518 97.1814 85.9182 97.1494 85.8762V85.8811Z" fill="black"/>
<path d="M106.184 87.2079C106.305 87.3326 106.399 87.4831 106.46 87.6493C106.521 87.8156 106.549 87.9938 106.54 88.1721C106.536 88.339 106.519 88.5052 106.489 88.6691L106.048 90.9851H105.528L105.969 88.6641C105.993 88.5382 106.006 88.41 106.006 88.2814C106.014 88.1576 105.996 88.0335 105.954 87.9176C105.912 87.8018 105.846 87.697 105.763 87.6105C105.563 87.441 105.31 87.3576 105.055 87.3769C104.704 87.3636 104.36 87.4854 104.086 87.7198C103.813 87.9807 103.63 88.3304 103.566 88.7138L103.144 90.9602H102.62L103.055 88.6393C103.079 88.5166 103.092 88.3918 103.093 88.2665C103.101 88.1415 103.083 88.0162 103.042 87.8988C103.001 87.7815 102.937 87.6747 102.854 87.5856C102.653 87.4145 102.399 87.3309 102.142 87.352C101.786 87.336 101.438 87.4639 101.168 87.7099C100.885 87.9943 100.699 88.37 100.639 88.7784L100.231 90.9602H99.7158L100.475 86.8849H100.971L100.849 87.5359C101.025 87.3109 101.248 87.1323 101.5 87.0142C101.752 86.896 102.026 86.8416 102.301 86.855C102.583 86.8442 102.862 86.9164 103.107 87.0638C103.33 87.1948 103.498 87.4118 103.575 87.6701C103.759 87.4101 103.998 87.2005 104.273 87.0588C104.567 86.9187 104.887 86.8491 105.21 86.855C105.564 86.842 105.911 86.9676 106.184 87.2079Z" fill="black"/>
<path d="M109.819 86.8748H110.334L109.576 90.9501H109.056L109.819 86.8748ZM110.049 85.8808C109.986 85.8132 109.951 85.7222 109.95 85.6273C109.949 85.5714 109.959 85.5158 109.978 85.4638C109.997 85.4117 110.026 85.3643 110.063 85.3241C110.1 85.2845 110.145 85.2534 110.194 85.2329C110.243 85.2124 110.296 85.2028 110.348 85.2049C110.444 85.2021 110.537 85.2396 110.606 85.3092C110.638 85.3399 110.664 85.3774 110.682 85.4194C110.7 85.4613 110.709 85.5068 110.709 85.5528C110.711 85.6107 110.701 85.6684 110.681 85.7222C110.661 85.7761 110.631 85.825 110.592 85.8659C110.514 85.9457 110.41 85.9903 110.302 85.9901C110.254 85.9916 110.207 85.9822 110.163 85.9624C110.12 85.9427 110.08 85.9132 110.049 85.8758V85.8808Z" fill="black"/>
<path d="M113.097 89.0668C113.094 89.1214 113.094 89.1762 113.097 89.2308C113.086 89.4042 113.11 89.5782 113.168 89.741C113.225 89.9038 113.314 90.0518 113.43 90.1751C113.708 90.4139 114.061 90.5313 114.418 90.5031C114.661 90.5051 114.903 90.4596 115.13 90.3689C115.336 90.2866 115.523 90.1577 115.678 89.9912L115.908 90.3838C115.718 90.5855 115.487 90.7385 115.233 90.8311C114.958 90.9373 114.668 90.9911 114.376 90.9902C113.899 91.019 113.43 90.8537 113.065 90.528C112.905 90.3639 112.781 90.1653 112.7 89.9458C112.619 89.7263 112.584 89.4909 112.596 89.2556C112.592 88.8275 112.685 88.4046 112.868 88.0231C113.044 87.667 113.308 87.3681 113.631 87.1583C113.96 86.9476 114.338 86.8391 114.723 86.8452C114.944 86.8329 115.166 86.8674 115.375 86.9467C115.584 87.0261 115.776 87.1487 115.94 87.3074C116.098 87.4715 116.222 87.6694 116.303 87.8878C116.383 88.1063 116.42 88.3404 116.409 88.5748C116.407 88.7418 116.389 88.9082 116.357 89.0718L113.097 89.0668ZM113.702 87.6752C113.42 87.9334 113.226 88.2826 113.149 88.6692H115.884C115.906 88.4826 115.889 88.2931 115.834 88.1144C115.779 87.9356 115.687 87.7721 115.566 87.6354C115.323 87.4135 115.009 87.2996 114.69 87.3174C114.33 87.3062 113.979 87.4333 113.702 87.6752Z" fill="black"/>
<path d="M122.264 87.208C122.39 87.335 122.487 87.49 122.55 87.662C122.612 87.8339 122.638 88.0184 122.625 88.202C122.624 88.3571 122.609 88.5118 122.582 88.6642L122.147 90.9802H121.627L122.062 88.6593C122.087 88.5366 122.099 88.4118 122.1 88.2865C122.108 88.1603 122.089 88.0338 122.045 87.9161C122.001 87.7984 121.934 87.6924 121.847 87.6056C121.635 87.4347 121.372 87.3516 121.107 87.3721C120.737 87.3565 120.374 87.4836 120.086 87.7299C119.797 88.0115 119.606 88.3878 119.543 88.7984L119.135 90.9802H118.615L119.379 86.9049H119.875L119.749 87.5559C119.935 87.3293 120.166 87.1503 120.427 87.0323C120.687 86.9144 120.969 86.8606 121.252 86.8751C121.617 86.8454 121.979 86.9645 122.264 87.208Z" fill="black"/>
<path d="M125.988 89.7178C125.973 89.8032 125.963 89.8895 125.959 89.9762C125.959 90.339 126.142 90.518 126.512 90.518C126.725 90.5217 126.934 90.4481 127.102 90.3092L127.229 90.7267C126.978 90.911 126.677 91.0035 126.372 90.9901C126.249 90.9981 126.125 90.9803 126.009 90.9377C125.892 90.895 125.785 90.8284 125.692 90.7416C125.607 90.654 125.54 90.5479 125.496 90.4304C125.452 90.3129 125.433 90.1868 125.44 90.0607C125.439 89.954 125.448 89.8474 125.468 89.7426L125.936 87.3422H125.257L125.336 86.875H126.025L126.194 85.9854H126.709L126.545 86.875H127.711L127.622 87.3422H126.456L125.988 89.7178Z" fill="black"/>
<path d="M130.362 90.7762C130.106 90.6456 129.894 90.4359 129.753 90.1749C129.605 89.8962 129.53 89.5803 129.538 89.2604C129.532 88.8294 129.628 88.4037 129.819 88.0229C130.003 87.6616 130.279 87.3621 130.615 87.1581C130.962 86.9462 131.357 86.838 131.758 86.845C132.223 86.8187 132.679 86.9844 133.032 87.3072C133.189 87.4694 133.313 87.6655 133.394 87.8823C133.474 88.0991 133.511 88.3317 133.5 88.5646C133.507 88.998 133.409 89.426 133.214 89.8071C133.033 90.1705 132.759 90.472 132.423 90.6768C132.075 90.8887 131.681 90.9969 131.28 90.9899C130.962 90.9986 130.647 90.9253 130.362 90.7762ZM132.17 90.2792C132.424 90.114 132.631 89.8786 132.769 89.5983C132.916 89.2903 132.989 88.9493 132.985 88.6044C132.993 88.4327 132.968 88.261 132.911 88.1002C132.854 87.9393 132.766 87.7929 132.652 87.67C132.393 87.4332 132.057 87.3137 131.716 87.337C131.414 87.3315 131.117 87.4158 130.858 87.5805C130.607 87.7494 130.401 87.986 130.264 88.2664C130.117 88.5745 130.043 88.9155 130.048 89.2604C130.039 89.4314 130.064 89.6025 130.121 89.7626C130.179 89.9227 130.267 90.0682 130.381 90.1898C130.639 90.4275 130.976 90.5472 131.317 90.5228C131.619 90.5201 131.914 90.4289 132.17 90.2593V90.2792Z" fill="black"/>
<path d="M2.44855 79.6238C1.76418 79.4476 1.11101 79.1556 0.51416 78.759L1.7132 76.3486C2.2505 76.7142 2.83398 76.997 3.44619 77.1885C4.04396 77.3753 4.66377 77.4707 5.28691 77.4718C5.75174 77.4969 6.21558 77.4049 6.64052 77.2034C6.7776 77.1411 6.89476 77.038 6.97787 76.9066C7.06098 76.7752 7.10648 76.6211 7.10889 76.4629C7.10458 76.3228 7.06076 76.1873 6.98311 76.0739C6.90546 75.9605 6.79754 75.8744 6.6733 75.8268C6.23508 75.6193 5.78058 75.453 5.31501 75.3298C4.72559 75.1717 4.14666 74.9725 3.58202 74.7334C3.11943 74.5344 2.70949 74.2188 2.38766 73.8139C2.05116 73.3503 1.88472 72.7728 1.91929 72.1887C1.90639 71.4218 2.12645 70.6707 2.54691 70.0467C3.00917 69.4035 3.63234 68.911 4.34548 68.6253C5.21493 68.2727 6.14094 68.1039 7.07142 68.1283C7.79493 68.123 8.51651 68.208 9.22127 68.3818C9.82659 68.5264 10.4067 68.7713 10.9402 69.1074L9.83484 71.4979C9.40059 71.2083 8.92656 70.992 8.42971 70.8568C7.9232 70.709 7.40001 70.6354 6.87471 70.6381C6.38927 70.6126 5.90569 70.7186 5.46958 70.9463C5.32259 71.0144 5.19671 71.1252 5.1064 71.2658C5.01609 71.4065 4.96502 71.5714 4.95905 71.7415C4.9629 71.8884 5.0102 72.0303 5.09426 72.1472C5.17831 72.264 5.29487 72.3498 5.42742 72.3925C5.87106 72.6028 6.33202 72.7691 6.80445 72.8895C7.37239 73.0352 7.93091 73.2194 8.47655 73.4412C8.92932 73.6345 9.33113 73.9414 9.64749 74.3358C9.98074 74.7839 10.1474 75.3463 10.1159 75.9162C10.1284 76.6786 9.90463 77.4242 9.47887 78.0384C9.01329 78.6833 8.38709 79.1774 7.67094 79.4648C6.80052 79.8136 5.87521 79.9823 4.945 79.9618C4.10251 79.9653 3.26322 79.8517 2.44855 79.6238Z" fill="white"/>
<path d="M18.9962 77.5264H14.4249L13.1837 79.753H9.97998L16.8651 68.3618H19.8533L22.4481 79.753H19.4271L18.9962 77.5264ZM18.5278 75.1508L17.8065 71.4581L15.7504 75.1508H18.5278Z" fill="white"/>
<path d="M25.8393 68.3467H28.8744L27.2116 77.1833H32.3638L31.8954 79.7378H23.6895L25.8393 68.3467Z" fill="white"/>
<path d="M45.7126 68.3467L38.982 79.7527H35.9891L33.5488 68.3616H36.6635L38.1998 75.7668L42.5838 68.3616L45.7126 68.3467Z" fill="white"/>
<path d="M51.9371 77.5264H47.3517L46.1246 79.753H42.9209L49.806 68.3618H52.799L55.3891 79.753H52.368L51.9371 77.5264ZM51.4688 75.1508L50.7475 71.4581L48.696 75.1508H51.4688Z" fill="white"/>
<path d="M58.7802 68.3467H61.8153L60.1572 77.1833H65.2813L64.7895 79.7527H56.6304L58.7802 68.3467Z" fill="white"/>
<path d="M68.5034 68.3467H71.5384L69.8804 77.1833H74.9857L74.5173 79.7527H66.3535L68.5034 68.3467Z" fill="white"/>
<path d="M83.9316 77.5264H79.3602L78.119 79.753H74.9106L81.8005 68.3618H84.7887L87.3788 79.753H84.3531L83.9316 77.5264ZM83.4632 75.1508L82.7419 71.4581L80.6857 75.1508H83.4632Z" fill="white"/>
<path d="M100.971 68.3467L98.8215 79.7527H96.3204L92.7842 73.4906L91.5992 79.7527H88.625L90.7702 68.3616H93.2526L96.8075 74.5939L97.9738 68.3616L100.971 68.3467Z" fill="white"/>
<path d="M105.294 70.9012H102.016L102.507 68.3467H112.123L111.631 70.9012H108.353L106.657 79.7527H103.622L105.294 70.9012Z" fill="white"/>
<path d="M118.652 77.5264H114.081L112.84 79.753H109.646L116.531 68.3618H119.519L122.104 79.753H119.083L118.652 77.5264ZM118.184 75.1508L117.463 71.4581L115.407 75.1508H118.184Z" fill="white"/>
<path d="M124.816 79.624C124.126 79.4462 123.468 79.1508 122.868 78.7493L124.067 76.3388C124.604 76.7044 125.187 76.9872 125.8 77.1788C126.397 77.3655 127.017 77.4609 127.64 77.462C128.105 77.4871 128.569 77.3952 128.994 77.1937C129.131 77.1308 129.248 77.0276 129.331 76.8964C129.414 76.7651 129.459 76.6112 129.462 76.4531C129.458 76.3125 129.413 76.1765 129.335 76.063C129.256 75.9496 129.147 75.8638 129.022 75.817C128.584 75.6088 128.13 75.4425 127.664 75.32C127.076 75.1628 126.498 74.9635 125.936 74.7236C125.474 74.5246 125.066 74.209 124.746 73.8042C124.398 73.3454 124.219 72.7674 124.245 72.179C124.231 71.4111 124.453 70.6594 124.877 70.0369C125.336 69.3928 125.958 68.8999 126.671 68.6155C127.54 68.263 128.466 68.0941 129.397 68.1185C130.12 68.1132 130.842 68.1983 131.547 68.372C132.152 68.5166 132.732 68.7615 133.266 69.0976L132.16 71.4882C131.726 71.199 131.252 70.9827 130.755 70.847C130.247 70.6993 129.722 70.6257 129.195 70.6284C128.71 70.6028 128.226 70.7088 127.79 70.9365C127.643 71.0046 127.517 71.1154 127.427 71.2561C127.337 71.3967 127.286 71.5616 127.28 71.7317C127.282 71.8756 127.326 72.0152 127.405 72.1317C127.485 72.2482 127.597 72.3358 127.725 72.3827C128.168 72.593 128.629 72.7594 129.102 72.8797C129.689 73.0278 130.266 73.217 130.83 73.4463C131.283 73.6396 131.685 73.9466 132.001 74.3409C132.343 74.7856 132.518 75.3483 132.493 75.9214C132.505 76.6837 132.282 77.4293 131.856 78.0435C131.39 78.6885 130.764 79.1825 130.048 79.4699C129.177 79.8187 128.252 79.9874 127.322 79.9669C126.476 79.9693 125.634 79.8541 124.816 79.624Z" fill="white"/>
<path d="M80.5781 56.6377C80.5781 56.747 80.5781 56.8514 80.5781 56.9558H14.5371V50.1271C14.5371 49.2227 14.7051 48.3272 15.0313 47.4917C15.3576 46.6563 15.8359 45.8972 16.4388 45.258C17.0416 44.6187 17.7573 44.1118 18.5449 43.7662C19.3325 43.4206 20.1765 43.243 21.0288 43.2437H67.1357V43.2735C67.4121 43.2735 67.6884 43.2437 67.9694 43.2437C71.3129 43.2542 74.5163 44.6692 76.8791 47.1792C79.242 49.6892 80.5719 53.09 80.5781 56.6377Z" fill="white"/>
<path d="M67.2575 0.0198507C96.9291 -0.894622 121.355 24.7106 121.355 56.2102V56.9557H108.924V56.8365C108.924 32.8216 90.4421 13.4288 67.8195 13.4288C67.5385 13.4288 65.6275 13.4288 64.8875 13.4785H14.8696C15.4096 11.0637 16.4199 8.79561 17.8356 6.82007C19.2513 4.84452 21.041 3.20529 23.0896 2.00784C25.4486 0.670735 28.0874 -0.0130393 30.7616 0.0198507H67.2575Z" fill="white"/>
<path d="M101.309 56.9359H88.4143V56.8167C88.4143 51.0169 86.2431 45.4548 82.3782 41.3538C78.5134 37.2528 73.2715 34.9488 67.8058 34.9488H29.4224C27.8398 34.9631 26.2697 34.6509 24.7995 34.0294C23.9624 33.6627 23.1542 33.2256 22.3827 32.7223C18.6052 30.2439 15.9097 26.2753 14.8887 21.689H67.122C67.3983 21.689 67.6746 21.689 67.9557 21.689C76.7029 21.6902 85.0998 25.3372 91.3374 31.8444C97.575 38.3516 101.154 47.1983 101.304 56.4787C101.309 56.6377 101.309 56.7868 101.309 56.9359Z" fill="white"/>
</g>
<defs>
<clipPath id="clip0_251_460">
<rect width="133" height="91" fill="white" transform="translate(0.5)"/>
</clipPath>
</defs>
</svg>
