<svg width="96" height="48" viewBox="0 0 96 48" fill="none" xmlns="http://www.w3.org/2000/svg">
<g clip-path="url(#clip0_363_177)">
<path d="M59.2509 47.9243C59.2509 48.0168 59.2509 48.1051 59.2509 48.1934H-0.334961V42.4152C-0.334961 41.65 -0.183432 40.8923 0.11097 40.1854C0.405372 39.4784 0.836874 38.8362 1.38082 38.2953C1.92476 37.7544 2.57048 37.3254 3.28108 37.033C3.99168 36.7405 4.75323 36.5903 5.5222 36.5908H47.1224V36.6161C47.3717 36.6161 47.6211 36.5908 47.8746 36.5908C50.8912 36.5997 53.7816 37.797 55.9134 39.9209C58.0453 42.0448 59.2453 44.9223 59.2509 47.9243Z" fill="#EF0000"/>
<path d="M47.2323 0.0168061C74.0036 -0.756979 96.0419 20.909 96.0419 47.5625V48.1933H84.8262V48.0924C84.8262 27.7721 68.1507 11.3628 47.7394 11.3628C47.4858 11.3628 45.7616 11.3628 45.0939 11.4049H-0.0349121C0.452239 9.36163 1.36379 7.44245 2.64111 5.77083C3.91843 4.09922 5.53322 2.71218 7.38162 1.69895C9.50999 0.567554 11.8909 -0.0110239 14.3037 0.0168061H47.2323Z" fill="#EF0000"/>
<path d="M77.9551 48.1765H66.3211V48.0756C66.3211 43.1681 64.3621 38.4617 60.875 34.9916C57.3879 31.5215 52.6584 29.572 47.7269 29.572H13.0953C11.6674 29.5841 10.2508 29.3199 8.92428 28.7941C8.16896 28.4838 7.43977 28.114 6.74369 27.6881C3.33547 25.5909 0.90345 22.233 -0.0178223 18.3522H47.1099C47.3593 18.3522 47.6086 18.3522 47.8621 18.3522C55.7544 18.3532 63.3305 21.4392 68.9584 26.9453C74.5863 32.4513 77.8157 39.937 77.9509 47.7896C77.9551 47.9242 77.9551 48.0503 77.9551 48.1765Z" fill="#EF0000"/>
</g>
<defs>
<clipPath id="clip0_363_177">
<rect width="96" height="48" fill="white"/>
</clipPath>
</defs>
</svg>
