<svg width="120" height="68" viewBox="0 0 120 68" fill="none" xmlns="http://www.w3.org/2000/svg">
<path d="M1.75801 67.374C1.14053 67.2249 0.551208 66.9778 0.0126953 66.6422L1.09454 64.6026C1.57932 64.912 2.10577 65.1512 2.65814 65.3133C3.19748 65.4714 3.7567 65.5521 4.31893 65.553C4.73833 65.5743 5.15683 65.4964 5.54023 65.3259C5.66392 65.2732 5.76963 65.186 5.84461 65.0748C5.9196 64.9636 5.96065 64.8332 5.96283 64.6994C5.95893 64.5808 5.9194 64.4661 5.84934 64.3702C5.77928 64.2742 5.68191 64.2014 5.56981 64.1611C5.17442 63.9856 4.76435 63.8448 4.34429 63.7405C3.81248 63.6068 3.29014 63.4382 2.78069 63.2359C2.36331 63.0675 1.99344 62.8005 1.70307 62.4579C1.39946 62.0656 1.24929 61.5769 1.28048 61.0827C1.26884 60.4338 1.46739 59.7983 1.84676 59.2702C2.26383 58.726 2.82609 58.3093 3.46952 58.0675C4.25399 57.7692 5.08948 57.6263 5.92902 57.647C6.58181 57.6425 7.23286 57.7144 7.86873 57.8614C8.41488 57.9838 8.93826 58.191 9.41965 58.4754L8.42233 60.4982C8.03053 60.2531 7.60283 60.0701 7.15454 59.9557C6.69754 59.8307 6.22549 59.7684 5.75153 59.7707C5.31354 59.749 4.87724 59.8388 4.48375 60.0314C4.35113 60.0891 4.23755 60.1828 4.15607 60.3018C4.07459 60.4209 4.0285 60.5603 4.02312 60.7043C4.0266 60.8286 4.06927 60.9487 4.14511 61.0476C4.22095 61.1464 4.32611 61.219 4.44571 61.2552C4.84598 61.4331 5.26189 61.5738 5.68814 61.6757C6.20057 61.7989 6.7045 61.9549 7.1968 62.1425C7.60532 62.3061 7.96785 62.5658 8.25329 62.8995C8.55397 63.2787 8.70434 63.7545 8.67588 64.2368C8.68722 64.8818 8.48529 65.5127 8.10116 66.0324C7.68108 66.5782 7.11609 66.9962 6.46994 67.2394C5.6846 67.5345 4.84973 67.6773 4.01044 67.6599C3.2503 67.6629 2.49305 67.5668 1.75801 67.374Z" fill="white"/>
<path d="M16.6882 65.5993H12.5636L11.4438 67.4833H8.55322L14.7654 57.8446H17.4615L19.8027 67.4833H17.077L16.6882 65.5993ZM16.2656 63.5891L15.6148 60.4645L13.7596 63.5891H16.2656Z" fill="white"/>
<path d="M22.8626 57.832H25.601L24.1008 65.3091H28.7493L28.3267 67.4707H20.9229L22.8626 57.832Z" fill="white"/>
<path d="M40.7931 57.832L34.7205 67.4833H32.0201L29.8184 57.8446H32.6286L34.0147 64.1106L37.9702 57.8446L40.7931 57.832Z" fill="white"/>
<path d="M46.4094 65.5993H42.2722L41.165 67.4833H38.2744L44.4866 57.8446H47.1869L49.5239 67.4833H46.7982L46.4094 65.5993ZM45.9868 63.5891L45.336 60.4645L43.485 63.5891H45.9868Z" fill="white"/>
<path d="M52.5833 57.832H55.3217L53.8257 65.3092H58.4489L58.0052 67.4833H50.6436L52.5833 57.832Z" fill="white"/>
<path d="M61.3567 57.832H64.0951L62.5991 65.3092H67.2054L66.7828 67.4833H59.417L61.3567 57.832Z" fill="white"/>
<path d="M75.2769 65.5993H71.1523L70.0325 67.4833H67.1377L73.3541 57.8446H76.0502L78.3872 67.4833H75.6572L75.2769 65.5993ZM74.8543 63.5891L74.2035 60.4645L72.3483 63.5891H74.8543Z" fill="white"/>
<path d="M90.6508 57.832L88.7111 67.4833H86.4545L83.2639 62.1846L82.1947 67.4833H79.5112L81.4467 57.8446H83.6865L86.894 63.1182L87.9462 57.8446L90.6508 57.832Z" fill="white"/>
<path d="M94.5514 59.9936H91.5933L92.037 57.832H100.713L100.269 59.9936H97.311L95.7812 67.4833H93.0428L94.5514 59.9936Z" fill="white"/>
<path d="M106.604 65.5993H102.479L101.359 67.4833H98.4771L104.689 57.8446H107.385L109.718 67.4833H106.992L106.604 65.5993ZM106.181 63.5891L105.53 60.4645L103.675 63.5891H106.181Z" fill="white"/>
<path d="M112.165 67.374C111.543 67.2236 110.949 66.9736 110.407 66.6338L111.489 64.5942C111.974 64.9035 112.5 65.1428 113.053 65.3049C113.592 65.4629 114.151 65.5437 114.713 65.5446C115.133 65.5658 115.551 65.488 115.935 65.3175C116.058 65.2644 116.164 65.177 116.238 65.066C116.313 64.9549 116.355 64.8247 116.357 64.6909C116.353 64.5719 116.313 64.4569 116.242 64.3608C116.171 64.2648 116.073 64.1923 115.96 64.1526C115.565 63.9765 115.155 63.8357 114.735 63.7321C114.204 63.5991 113.683 63.4305 113.175 63.2275C112.759 63.0591 112.391 62.792 112.102 62.4495C111.788 62.0613 111.627 61.5722 111.65 61.0743C111.637 60.4246 111.838 59.7885 112.22 59.2618C112.635 58.7168 113.196 58.2997 113.839 58.0591C114.623 57.7608 115.459 57.6179 116.298 57.6386C116.951 57.634 117.602 57.706 118.238 57.853C118.784 57.9754 119.307 58.1826 119.789 58.467L118.791 60.4898C118.399 60.2451 117.972 60.0621 117.524 59.9473C117.065 59.8223 116.592 59.76 116.116 59.7623C115.678 59.7406 115.242 59.8304 114.849 60.023C114.716 60.0807 114.602 60.1744 114.521 60.2934C114.44 60.4124 114.393 60.5519 114.388 60.6958C114.39 60.8176 114.43 60.9358 114.501 61.0343C114.573 61.1329 114.674 61.207 114.79 61.2467C115.19 61.4246 115.606 61.5654 116.032 61.6673C116.562 61.7925 117.083 61.9527 117.591 62.1467C118 62.3102 118.362 62.57 118.648 62.9037C118.956 63.2799 119.114 63.756 119.092 64.241C119.103 64.886 118.901 65.5169 118.517 66.0366C118.097 66.5824 117.532 67.0004 116.886 67.2436C116.1 67.5387 115.265 67.6815 114.426 67.6641C113.663 67.6662 112.903 67.5686 112.165 67.374Z" fill="white"/>
<path d="M72.2509 47.9243C72.2509 48.0168 72.2509 48.1051 72.2509 48.1934H12.665V42.4152C12.665 41.65 12.8166 40.8923 13.111 40.1854C13.4054 39.4784 13.8369 38.8362 14.3808 38.2953C14.9248 37.7544 15.5705 37.3254 16.2811 37.033C16.9917 36.7405 17.7532 36.5903 18.5222 36.5908H60.1224V36.6161C60.3717 36.6161 60.6211 36.5908 60.8746 36.5908C63.8912 36.5997 66.7816 37.797 68.9134 39.9209C71.0453 42.0448 72.2453 44.9223 72.2509 47.9243Z" fill="#EF0000"/>
<path d="M60.2325 0.0168061C87.0038 -0.756979 109.042 20.909 109.042 47.5625V48.1933H97.8265V48.0924C97.8265 27.7721 81.1509 11.3628 60.7396 11.3628C60.4861 11.3628 58.7619 11.3628 58.0942 11.4049H12.9653C13.4525 9.36163 14.364 7.44245 15.6414 5.77083C16.9187 4.09922 18.5335 2.71218 20.3819 1.69895C22.5102 0.567554 24.8911 -0.0110239 27.304 0.0168061H60.2325Z" fill="#EF0000"/>
<path d="M90.9549 48.1765H79.3208V48.0756C79.3208 43.1681 77.3618 38.4617 73.8747 34.9916C70.3876 31.5215 65.6581 29.572 60.7267 29.572H26.095C24.6672 29.5841 23.2506 29.3199 21.924 28.7941C21.1687 28.4838 20.4395 28.114 19.7434 27.6881C16.3352 25.5909 13.9032 22.233 12.9819 18.3522H60.1097C60.359 18.3522 60.6083 18.3522 60.8619 18.3522C68.7542 18.3532 76.3302 21.4392 81.9582 26.9453C87.5861 32.4513 90.8154 39.937 90.9506 47.7896C90.9549 47.9242 90.9549 48.0504 90.9549 48.1765Z" fill="#EF0000"/>
</svg>
