<svg width="171" height="71" viewBox="0 0 171 71" fill="none" xmlns="http://www.w3.org/2000/svg">
<g clip-path="url(#clip0_237_849)">
<path d="M102.958 68.3346C102.958 68.4665 102.958 68.5924 102.958 68.7184H18.0479V60.4793C18.0479 59.3882 18.2638 58.3077 18.6833 57.2997C19.1028 56.2917 19.7177 55.3759 20.4928 54.6047C21.268 53.8334 22.1881 53.2218 23.2007 52.8048C24.2133 52.3878 25.2985 52.1735 26.3943 52.1743H85.6746V52.2103C86.0299 52.2103 86.3852 52.1743 86.7465 52.1743C91.0452 52.187 95.1639 53.8942 98.2018 56.9226C101.24 59.951 102.95 64.0542 102.958 68.3346Z" fill="#EF0000"/>
<path d="M85.8313 0.0240247C123.98 -1.07931 155.385 29.8141 155.385 67.8192V68.7186H139.403V68.5747C139.403 39.6002 115.64 16.2023 86.5539 16.2023C86.1926 16.2023 83.7357 16.2023 82.7842 16.2622H18.4756C19.1698 13.3487 20.4687 10.6122 22.2889 8.22866C24.1091 5.84511 26.4102 3.86734 29.0441 2.42258C32.0771 0.809333 35.4698 -0.015658 38.9081 0.0240247H85.8313Z" fill="#EF0000"/>
<path d="M129.611 68.6945H113.032V68.5506C113.032 61.5531 110.241 54.8423 105.272 49.8943C100.303 44.9463 93.5631 42.1666 86.5358 42.1666H37.1857C35.151 42.1838 33.1323 41.8071 31.242 41.0572C30.1657 40.6148 29.1266 40.0875 28.1347 39.4802C23.2779 36.4899 19.8123 31.7018 18.4995 26.1682H85.6565C86.0118 26.1682 86.3671 26.1682 86.7285 26.1682C97.975 26.1697 108.771 30.5699 116.791 38.421C124.81 46.2721 129.412 56.9458 129.605 68.1429C129.611 68.3348 129.611 68.5147 129.611 68.6945Z" fill="#EF0000"/>
</g>
<defs>
<clipPath id="clip0_237_849">
<rect width="171" height="71" fill="white"/>
</clipPath>
</defs>
</svg>
