<svg id="Capa_1" data-name="Capa 1" xmlns="http://www.w3.org/2000/svg" viewBox="0 0 364.75 235.2"><defs><style>.cls-1{fill:#ef0000;}.cls-2{fill:#fff;}</style></defs><title>LOGO ROJO LETRAS BLANCAS</title><path class="cls-1" d="M2.7,234.7a5.3,5.3,0,0,1-2.13-1.29l.72-1.16a4.83,4.83,0,0,0,2,1.22,7.2,7.2,0,0,0,2.56.46,5.4,5.4,0,0,0,3-.73,2.27,2.27,0,0,0,1.13-2A1.57,1.57,0,0,0,9.5,230a3.13,3.13,0,0,0-1.06-.71,15.59,15.59,0,0,0-1.74-.59A20.66,20.66,0,0,1,4.59,228,3.74,3.74,0,0,1,3.21,227a2.66,2.66,0,0,1-.58-1.79,3.61,3.61,0,0,1,.72-2.25,4.4,4.4,0,0,1,2-1.46,7.79,7.79,0,0,1,2.91-.51,9.1,9.1,0,0,1,2.41.31,5.78,5.78,0,0,1,1.94.89l-.62,1.2a5.64,5.64,0,0,0-1.74-.85,7.09,7.09,0,0,0-2.07-.29,5.16,5.16,0,0,0-3,.76A2.36,2.36,0,0,0,4.08,225a1.6,1.6,0,0,0,.44,1.18,3,3,0,0,0,1.09.73c.43.18,1,.38,1.75.6a16,16,0,0,1,2.1.73,3.68,3.68,0,0,1,1.37,1,2.53,2.53,0,0,1,.56,1.71,3.65,3.65,0,0,1-.73,2.27,4.61,4.61,0,0,1-2,1.46,8.25,8.25,0,0,1-3,.5A8.93,8.93,0,0,1,2.7,234.7Z"/><path class="cls-1" d="M20.12,234.63a4,4,0,0,1-1.67-1.57,4.51,4.51,0,0,1-.59-2.35,6.57,6.57,0,0,1,.78-3.21,5.74,5.74,0,0,1,2.17-2.23,6.11,6.11,0,0,1,3.13-.81,4.94,4.94,0,0,1,3.5,1.2,4.22,4.22,0,0,1,1.29,3.25,6.57,6.57,0,0,1-.78,3.21,5.73,5.73,0,0,1-2.17,2.25,6.15,6.15,0,0,1-3.14.81A5.57,5.57,0,0,1,20.12,234.63Zm5-1.35a4.4,4.4,0,0,0,1.63-1.76,5.42,5.42,0,0,0,.59-2.53,3.18,3.18,0,0,0-.91-2.42,3.56,3.56,0,0,0-2.56-.87,4.36,4.36,0,0,0-4,2.42,5.28,5.28,0,0,0-.59,2.53,3.12,3.12,0,0,0,.91,2.4,3.55,3.55,0,0,0,2.55.86A4.47,4.47,0,0,0,25.09,233.28Z"/><path class="cls-1" d="M37.84,220.21h1.43l-3,14.87H34.88Z"/><path class="cls-1" d="M56.23,224.54l-2.1,10.54H52.77l.34-1.69A5,5,0,0,1,49,235.18a3.91,3.91,0,0,1-2.75-.92,3.26,3.26,0,0,1-1-2.53,6.22,6.22,0,0,1,.12-1.18l1.2-6H48l-1.2,6a5.19,5.19,0,0,0-.1.94,2.28,2.28,0,0,0,.67,1.78,2.85,2.85,0,0,0,2,.62,4.15,4.15,0,0,0,2.79-.94,4.83,4.83,0,0,0,1.48-2.74l1.12-5.67Z"/><path class="cls-1" d="M64.66,234.63A4,4,0,0,1,63,233.06a4.61,4.61,0,0,1-.59-2.35,6.57,6.57,0,0,1,.78-3.21,5.77,5.77,0,0,1,2.18-2.23,6.23,6.23,0,0,1,3.17-.81A5.57,5.57,0,0,1,71,225a3.8,3.8,0,0,1,1.63,1.57l-1.2.7a3.24,3.24,0,0,0-3.06-1.56,4.43,4.43,0,0,0-4,2.41,5.38,5.38,0,0,0-.59,2.54,3.16,3.16,0,0,0,.91,2.4,3.63,3.63,0,0,0,2.6.86,4.57,4.57,0,0,0,1.89-.39,3.54,3.54,0,0,0,1.43-1.13l1,.78a4.69,4.69,0,0,1-1.87,1.48,6.13,6.13,0,0,1-2.53.53A5.85,5.85,0,0,1,64.66,234.63Z"/><path class="cls-1" d="M80.21,224.54h1.42l-2.09,10.54H78.12Zm.63-2.58a.93.93,0,0,1-.27-.66,1,1,0,0,1,.31-.77,1.05,1.05,0,0,1,.79-.32.94.94,0,0,1,.7.28.82.82,0,0,1,.28.63,1.09,1.09,0,0,1-1.12,1.12A.94.94,0,0,1,80.84,222Z"/><path class="cls-1" d="M90,234.63a4,4,0,0,1-1.67-1.57,4.51,4.51,0,0,1-.59-2.35,6.57,6.57,0,0,1,.78-3.21,5.74,5.74,0,0,1,2.17-2.23,6.12,6.12,0,0,1,3.14-.81,4.93,4.93,0,0,1,3.49,1.2,4.22,4.22,0,0,1,1.29,3.25,6.57,6.57,0,0,1-.78,3.21,5.73,5.73,0,0,1-2.17,2.25,6.15,6.15,0,0,1-3.14.81A5.57,5.57,0,0,1,90,234.63Zm5-1.35a4.34,4.34,0,0,0,1.63-1.76,5.42,5.42,0,0,0,.59-2.53,3.18,3.18,0,0,0-.91-2.42,3.56,3.56,0,0,0-2.56-.87,4.36,4.36,0,0,0-4,2.42,5.39,5.39,0,0,0-.59,2.53,3.12,3.12,0,0,0,.91,2.4,3.55,3.55,0,0,0,2.55.86A4.47,4.47,0,0,0,95,233.28Z"/><path class="cls-1" d="M114.81,225.37a3.26,3.26,0,0,1,1,2.52,6.59,6.59,0,0,1-.12,1.2l-1.21,6h-1.42l1.2-6a5.39,5.39,0,0,0,.1-1,2.22,2.22,0,0,0-.69-1.76,3,3,0,0,0-2-.61,4.19,4.19,0,0,0-2.8.93,4.75,4.75,0,0,0-1.49,2.76l-1.12,5.65H104.8l2.08-10.54h1.37l-.34,1.68a5.13,5.13,0,0,1,4.12-1.76A4,4,0,0,1,114.81,225.37Z"/><path class="cls-1" d="M124.09,230.21a2.31,2.31,0,0,0,0,.42,3.14,3.14,0,0,0,.91,2.44,3.88,3.88,0,0,0,2.71.84,5.29,5.29,0,0,0,2-.35,3.9,3.9,0,0,0,1.49-1l.64,1a5.12,5.12,0,0,1-1.85,1.16,6.85,6.85,0,0,1-2.36.41A5.07,5.07,0,0,1,124,234a4.2,4.2,0,0,1-1.31-3.28,6.73,6.73,0,0,1,.75-3.19,5.6,5.6,0,0,1,5.07-3,4.65,4.65,0,0,1,3.35,1.19,4.33,4.33,0,0,1,1.24,3.28,6.93,6.93,0,0,1-.14,1.28Zm1.66-3.61a4.72,4.72,0,0,0-1.52,2.55h7.51a3.63,3.63,0,0,0,0-.38,2.94,2.94,0,0,0-.9-2.3,3.46,3.46,0,0,0-2.41-.81A4.11,4.11,0,0,0,125.75,226.6Z"/><path class="cls-1" d="M139.88,234.82a4.73,4.73,0,0,1-1.77-.93l.68-1.12a4.46,4.46,0,0,0,1.58.84,6.43,6.43,0,0,0,2.06.32,4.47,4.47,0,0,0,2.32-.49,1.53,1.53,0,0,0,.81-1.39,1,1,0,0,0-.33-.8,2.29,2.29,0,0,0-.81-.46,12.58,12.58,0,0,0-1.41-.36,16,16,0,0,1-1.78-.48,2.93,2.93,0,0,1-1.16-.76,2.06,2.06,0,0,1-.48-1.45,2.8,2.8,0,0,1,1.24-2.39,5.64,5.64,0,0,1,3.33-.89,7.4,7.4,0,0,1,2,.27,4.88,4.88,0,0,1,1.57.71l-.6,1.14a4.6,4.6,0,0,0-1.41-.67,6.23,6.23,0,0,0-1.67-.23,4.21,4.21,0,0,0-2.25.52,1.62,1.62,0,0,0-.8,1.41,1.15,1.15,0,0,0,.34.84,2.27,2.27,0,0,0,.85.48c.34.1.81.22,1.4.34a15.46,15.46,0,0,1,1.75.47,2.68,2.68,0,0,1,1.15.75,2,2,0,0,1,.48,1.4,2.75,2.75,0,0,1-1.27,2.41,5.85,5.85,0,0,1-3.4.88A8,8,0,0,1,139.88,234.82Z"/><path class="cls-1" d="M164.33,230.21a2.31,2.31,0,0,0,0,.42,3.14,3.14,0,0,0,.91,2.44,3.86,3.86,0,0,0,2.71.84,5.2,5.2,0,0,0,1.95-.35,3.86,3.86,0,0,0,1.5-1l.64,1a5.08,5.08,0,0,1-1.86,1.16,6.79,6.79,0,0,1-2.35.41,5.07,5.07,0,0,1-3.59-1.21,4.21,4.21,0,0,1-1.32-3.28,6.62,6.62,0,0,1,.76-3.19,5.6,5.6,0,0,1,5.07-3,4.67,4.67,0,0,1,3.35,1.19,4.37,4.37,0,0,1,1.24,3.28,6.93,6.93,0,0,1-.14,1.28ZM166,226.6a4.66,4.66,0,0,0-1.52,2.55H172a3.63,3.63,0,0,0,0-.38,2.94,2.94,0,0,0-.9-2.3,3.48,3.48,0,0,0-2.41-.81A4.11,4.11,0,0,0,166,226.6Z"/><path class="cls-1" d="M189.47,225.37a3.26,3.26,0,0,1,1,2.52,6.59,6.59,0,0,1-.12,1.2l-1.2,6h-1.42l1.2-6a5.39,5.39,0,0,0,.1-1,2.22,2.22,0,0,0-.69-1.76,3,3,0,0,0-2-.61,4.21,4.21,0,0,0-2.81.93,4.74,4.74,0,0,0-1.48,2.76l-1.12,5.65h-1.42l2.08-10.54h1.36l-.34,1.68a5.15,5.15,0,0,1,4.13-1.76A3.92,3.92,0,0,1,189.47,225.37Z"/><path class="cls-1" d="M224.67,221.06l-2.8,14h-1.42L222.67,224l-7.25,9.33h-.7L211,223.78l-2.24,11.3h-1.42l2.8-14h1.2l4.05,10.41,8-10.41Z"/><path class="cls-1" d="M232.66,234.63a4,4,0,0,1-1.67-1.57,4.61,4.61,0,0,1-.59-2.35,6.57,6.57,0,0,1,.78-3.21,5.81,5.81,0,0,1,2.17-2.23,6.15,6.15,0,0,1,3.14-.81,4.92,4.92,0,0,1,3.49,1.2,4.22,4.22,0,0,1,1.3,3.25,6.58,6.58,0,0,1-.79,3.21,5.73,5.73,0,0,1-2.17,2.25,6.11,6.11,0,0,1-3.13.81A5.61,5.61,0,0,1,232.66,234.63Zm5-1.35a4.34,4.34,0,0,0,1.63-1.76,5.3,5.3,0,0,0,.59-2.53,3.18,3.18,0,0,0-.91-2.42,3.55,3.55,0,0,0-2.55-.87,4.48,4.48,0,0,0-2.35.64,4.53,4.53,0,0,0-1.63,1.78,5.39,5.39,0,0,0-.59,2.53,3.16,3.16,0,0,0,.91,2.4,3.56,3.56,0,0,0,2.56.86A4.44,4.44,0,0,0,237.63,233.28Z"/><path class="cls-1" d="M258.08,224.54l-6.77,10.54h-1.46l-2.61-10.54h1.43l2.18,9,5.75-9Z"/><path class="cls-1" d="M264.43,224.54h1.42l-2.08,10.54h-1.42Zm.63-2.58a.93.93,0,0,1-.27-.66,1,1,0,0,1,.31-.77,1.07,1.07,0,0,1,.79-.32.94.94,0,0,1,.7.28.82.82,0,0,1,.28.63,1.11,1.11,0,0,1-.32.8,1.09,1.09,0,0,1-.8.32A.94.94,0,0,1,265.06,222Z"/><path class="cls-1" d="M289.83,225.35a3.23,3.23,0,0,1,1,2.5,7.88,7.88,0,0,1-.14,1.24l-1.21,6H288l1.2-6a4.46,4.46,0,0,0,.1-1,2.26,2.26,0,0,0-.66-1.74,2.8,2.8,0,0,0-1.94-.61,4,4,0,0,0-2.66.89,4.58,4.58,0,0,0-1.43,2.64l-1.16,5.81h-1.42l1.2-6a5.39,5.39,0,0,0,.1-1,2.27,2.27,0,0,0-.65-1.76,2.78,2.78,0,0,0-2-.61,4,4,0,0,0-2.69.93,4.93,4.93,0,0,0-1.44,2.76l-1.12,5.65H272.1l2.08-10.54h1.36l-.34,1.68a4.9,4.9,0,0,1,4-1.76,4.18,4.18,0,0,1,2.21.54,2.74,2.74,0,0,1,1.23,1.56,5.19,5.19,0,0,1,1.92-1.57,5.94,5.94,0,0,1,2.53-.53A3.92,3.92,0,0,1,289.83,225.35Z"/><path class="cls-1" d="M299.8,224.54h1.42l-2.08,10.54h-1.42Zm.63-2.58a.93.93,0,0,1-.27-.66,1,1,0,0,1,.31-.77,1.07,1.07,0,0,1,.79-.32.94.94,0,0,1,.7.28.82.82,0,0,1,.28.63,1.11,1.11,0,0,1-.32.8,1.09,1.09,0,0,1-.8.32A.94.94,0,0,1,300.43,222Z"/><path class="cls-1" d="M308.79,230.21a3.87,3.87,0,0,0,0,.42,3.18,3.18,0,0,0,.91,2.44,3.9,3.9,0,0,0,2.72.84,5.27,5.27,0,0,0,2-.35,3.82,3.82,0,0,0,1.49-1l.64,1a5,5,0,0,1-1.85,1.16,6.83,6.83,0,0,1-2.35.41,5.09,5.09,0,0,1-3.6-1.21,4.23,4.23,0,0,1-1.31-3.28,6.73,6.73,0,0,1,.75-3.19,5.73,5.73,0,0,1,2.08-2.23,5.67,5.67,0,0,1,3-.81,4.64,4.64,0,0,1,3.34,1.19,4.33,4.33,0,0,1,1.24,3.28,6.16,6.16,0,0,1-.14,1.28Zm1.66-3.61a4.78,4.78,0,0,0-1.52,2.55h7.51a2.06,2.06,0,0,0,0-.38,2.94,2.94,0,0,0-.9-2.3,3.45,3.45,0,0,0-2.4-.81A4.12,4.12,0,0,0,310.45,226.6Z"/><path class="cls-1" d="M333.94,225.37a3.26,3.26,0,0,1,1,2.52,6.59,6.59,0,0,1-.12,1.2l-1.2,6h-1.42l1.2-6a6.52,6.52,0,0,0,.1-1,2.22,2.22,0,0,0-.69-1.76,3,3,0,0,0-2-.61,4.19,4.19,0,0,0-2.8.93,4.68,4.68,0,0,0-1.48,2.76l-1.12,5.65h-1.43L326,224.54h1.36l-.34,1.68a5.15,5.15,0,0,1,4.12-1.76A4,4,0,0,1,333.94,225.37Z"/><path class="cls-1" d="M344.14,231.89a5.46,5.46,0,0,0-.08.66c0,.94.51,1.4,1.52,1.4a2.64,2.64,0,0,0,1.63-.54l.34,1.08a3.75,3.75,0,0,1-2.35.69,2.64,2.64,0,0,1-1.87-.65,2.27,2.27,0,0,1-.69-1.76,4.22,4.22,0,0,1,.08-.82l1.22-6.21h-1.86l.22-1.2h1.88l.46-2.3h1.43l-.47,2.3h3.21l-.24,1.2h-3.21Z"/><path class="cls-1" d="M356.14,234.63a4,4,0,0,1-1.67-1.57,4.51,4.51,0,0,1-.59-2.35,6.57,6.57,0,0,1,.78-3.21,5.74,5.74,0,0,1,2.17-2.23,6.11,6.11,0,0,1,3.13-.81,4.94,4.94,0,0,1,3.5,1.2,4.22,4.22,0,0,1,1.29,3.25,6.57,6.57,0,0,1-.78,3.21,5.73,5.73,0,0,1-2.17,2.25,6.12,6.12,0,0,1-3.14.81A5.57,5.57,0,0,1,356.14,234.63Zm5-1.35a4.4,4.4,0,0,0,1.63-1.76,5.42,5.42,0,0,0,.59-2.53,3.18,3.18,0,0,0-.91-2.42,3.55,3.55,0,0,0-2.55-.87,4.36,4.36,0,0,0-4,2.42,5.39,5.39,0,0,0-.59,2.53,3.12,3.12,0,0,0,.91,2.4,3.55,3.55,0,0,0,2.55.86A4.47,4.47,0,0,0,361.11,233.28Z"/><path class="cls-2" d="M5.34,205.8A17.72,17.72,0,0,1,0,203.53l3.28-6.22A18.34,18.34,0,0,0,8,199.47a18.05,18.05,0,0,0,5.05.74,8.16,8.16,0,0,0,3.72-.69,2.13,2.13,0,0,0,1.33-1.92,1.81,1.81,0,0,0-1.2-1.64,22.24,22.24,0,0,0-3.72-1.26,40.1,40.1,0,0,1-4.76-1.54,8.52,8.52,0,0,1-3.26-2.37,6.27,6.27,0,0,1-1.36-4.21,9.16,9.16,0,0,1,1.72-5.53,11.09,11.09,0,0,1,4.92-3.68,19.74,19.74,0,0,1,7.49-1.3,25.13,25.13,0,0,1,5.89.65,16,16,0,0,1,4.71,1.87l-3,6.18a13.89,13.89,0,0,0-3.81-1.66,16,16,0,0,0-4.26-.57,8,8,0,0,0-3.9.8,2.35,2.35,0,0,0-1.4,2.06,1.84,1.84,0,0,0,1.22,1.69,22.66,22.66,0,0,0,3.78,1.26,36.14,36.14,0,0,1,4.73,1.47,8.37,8.37,0,0,1,3.22,2.31,6,6,0,0,1,1.35,4.08,9,9,0,0,1-1.75,5.49,11.14,11.14,0,0,1-5,3.68,19.81,19.81,0,0,1-7.47,1.31A26.55,26.55,0,0,1,5.34,205.8Z"/><path class="cls-2" d="M50.72,200.38H38.19l-3.41,5.72H26l18.89-29.44h8.2l7.11,29.44H51.9Zm-1.26-6.14-2-9.55-5.64,9.55Z"/><path class="cls-2" d="M69.48,176.66h8.33l-4.54,22.83h14L86,206.1H63.59Z"/><path class="cls-2" d="M124,176.66,105.53,206.1h-8.2l-6.69-29.44h8.54l4.2,19.13,12-19.13Z"/><path class="cls-2" d="M141.07,200.38H128.54l-3.41,5.72h-8.79l18.88-29.44h8.2l7.11,29.44h-8.28Zm-1.26-6.14-2-9.55-5.64,9.55Z"/><path class="cls-2" d="M159.83,176.66h8.33l-4.55,22.83h14l-1.34,6.61H153.94Z"/><path class="cls-2" d="M186.49,176.66h8.33l-4.54,22.83h14.05L203,206.1H180.6Z"/><path class="cls-2" d="M228.8,200.38H216.27l-3.41,5.72h-8.79L223,176.66h8.2l7.11,29.44H230Zm-1.26-6.14-2-9.55-5.64,9.55Z"/><path class="cls-2" d="M275.53,176.66l-5.89,29.44h-6.85L253.07,190l-3.24,16.15h-8.16l5.89-29.44h6.86l9.76,16.1,3.19-16.1Z"/><path class="cls-2" d="M287.39,183.26h-9l1.35-6.6h26.37l-1.35,6.6h-9l-4.58,22.84h-8.33Z"/><path class="cls-2" d="M324,200.38H311.5l-3.41,5.72H299.3l18.88-29.44h8.2l7.11,29.44h-8.28Zm-1.26-6.14-2-9.55-5.63,9.55Z"/><path class="cls-2" d="M340.94,205.8a17.72,17.72,0,0,1-5.34-2.27l3.28-6.22a18.19,18.19,0,0,0,4.75,2.16,18,18,0,0,0,5.05.74,8.19,8.19,0,0,0,3.72-.69,2.14,2.14,0,0,0,1.32-1.92,1.81,1.81,0,0,0-1.2-1.64,21.61,21.61,0,0,0-3.72-1.26,39.88,39.88,0,0,1-4.75-1.54,8.44,8.44,0,0,1-3.26-2.37,6.27,6.27,0,0,1-1.37-4.21,9.16,9.16,0,0,1,1.73-5.53,11.09,11.09,0,0,1,4.92-3.68,19.74,19.74,0,0,1,7.49-1.3,25,25,0,0,1,5.88.65,15.77,15.77,0,0,1,4.71,1.87l-3,6.18a13.89,13.89,0,0,0-3.81-1.66,16.1,16.1,0,0,0-4.27-.57,8,8,0,0,0-3.89.8,2.36,2.36,0,0,0-1.41,2.06,1.86,1.86,0,0,0,1.22,1.69,22.84,22.84,0,0,0,3.79,1.26,36.64,36.64,0,0,1,4.73,1.47,8.37,8.37,0,0,1,3.22,2.31,6.06,6.06,0,0,1,1.34,4.08,9,9,0,0,1-1.74,5.49,11.17,11.17,0,0,1-5,3.68,19.72,19.72,0,0,1-7.46,1.31A26.5,26.5,0,0,1,340.94,205.8Z"/><path class="cls-1" d="M219.61,146.39c0,.28,0,.56,0,.82H38.46V129.56a17.78,17.78,0,0,1,17.79-17.79H182.71v.07c.75,0,1.51-.07,2.28-.07A34.62,34.62,0,0,1,219.61,146.39Z"/><path class="cls-1" d="M183.08.06C264.46-2.3,331.5,63.88,331.5,145.29v1.92H297.35v-.31c0-62.07-50.68-112.19-112.74-112.19-.76,0-6,0-8,.13H39.41A45.94,45.94,0,0,1,62,5.2,43.51,43.51,0,0,1,83,.06H183.08Z"/><path class="cls-1" d="M276.47,147.17v0H241.1v-.31a56.56,56.56,0,0,0-56.56-56.56H79.32A33.38,33.38,0,0,1,66.64,87.9,46,46,0,0,1,39.41,56h143.3v0q1.13,0,2.28,0a91.47,91.47,0,0,1,91.46,89.91V146C276.47,146.39,276.47,146.78,276.47,147.17Z"/></svg>