<svg width="64" height="35" viewBox="0 0 64 35" fill="none" xmlns="http://www.w3.org/2000/svg">
<g clip-path="url(#clip0_243_1139)">
<path d="M1.79227 34.9994C1.46809 34.922 1.1587 34.7936 0.875977 34.6193L1.44394 33.5598C1.69845 33.7205 1.97484 33.8448 2.26483 33.929C2.54799 34.0111 2.84158 34.053 3.13675 34.0535C3.35694 34.0645 3.57665 34.0241 3.77793 33.9355C3.84287 33.9081 3.89837 33.8628 3.93773 33.8051C3.9771 33.7473 3.99865 33.6796 3.9998 33.61C3.99775 33.5484 3.977 33.4889 3.94022 33.439C3.90343 33.3892 3.85231 33.3513 3.79346 33.3304C3.58588 33.2392 3.37059 33.1661 3.15006 33.1119C2.87086 33.0425 2.59663 32.9549 2.32917 32.8498C2.11005 32.7623 1.91587 32.6236 1.76343 32.4456C1.60403 32.2418 1.52519 31.988 1.54156 31.7313C1.53545 31.3941 1.63969 31.064 1.83886 30.7897C2.05782 30.507 2.35301 30.2905 2.69081 30.1649C3.10265 30.0099 3.54129 29.9357 3.98205 29.9464C4.32476 29.9441 4.66656 29.9815 5.00039 30.0579C5.28712 30.1214 5.5619 30.2291 5.81463 30.3768L5.29103 31.4276C5.08534 31.3003 4.8608 31.2052 4.62545 31.1458C4.38552 31.0808 4.13769 31.0485 3.88886 31.0497C3.65892 31.0384 3.42986 31.085 3.22328 31.1851C3.15365 31.2151 3.09403 31.2638 3.05125 31.3256C3.00847 31.3874 2.98428 31.4599 2.98145 31.5347C2.98327 31.5992 3.00568 31.6616 3.0455 31.713C3.08531 31.7643 3.14052 31.8021 3.20331 31.8208C3.41345 31.9132 3.6318 31.9864 3.85559 32.0393C4.12461 32.1033 4.38917 32.1843 4.64763 32.2818C4.8621 32.3667 5.05243 32.5017 5.20229 32.675C5.36015 32.872 5.43909 33.1192 5.42415 33.3697C5.4301 33.7048 5.32409 34.0326 5.12242 34.3025C4.90188 34.586 4.60526 34.8032 4.26603 34.9295C3.85373 35.0828 3.41542 35.157 2.97479 35.148C2.57572 35.1495 2.17816 35.0996 1.79227 34.9994Z" fill="white"/>
<path d="M9.63071 34.0776H7.46533L6.8774 35.0563H5.35986L8.62124 30.0492H10.0367L11.2658 35.0563H9.83482L9.63071 34.0776ZM9.40885 33.0334L9.06718 31.4102L8.0932 33.0334H9.40885Z" fill="white"/>
<path d="M12.8719 30.0426H14.3095L13.5219 33.9268H15.9624L15.7405 35.0497H11.8535L12.8719 30.0426Z" fill="white"/>
<path d="M22.2857 30.0426L19.0975 35.0563H17.6798L16.5239 30.0492H17.9993L18.727 33.3042L20.8036 30.0492L22.2857 30.0426Z" fill="white"/>
<path d="M25.2342 34.0776H23.0622L22.4809 35.0563H20.9634L24.2248 30.0492H25.6425L26.8694 35.0563H25.4383L25.2342 34.0776ZM25.0124 33.0334L24.6707 31.4102L23.6989 33.0334H25.0124Z" fill="white"/>
<path d="M28.4754 30.0426H29.913L29.1277 33.9268H31.5548L31.3219 35.0563H27.457L28.4754 30.0426Z" fill="white"/>
<path d="M33.0813 30.0426H34.519L33.7336 33.9268H36.1519L35.93 35.0563H32.063L33.0813 30.0426Z" fill="white"/>
<path d="M40.3893 34.0776H38.2239L37.636 35.0563H36.1162L39.3798 30.0492H40.7953L42.0222 35.0563H40.589L40.3893 34.0776ZM40.1674 33.0334L39.8257 31.4102L38.8518 33.0334H40.1674Z" fill="white"/>
<path d="M48.4606 30.0426L47.4422 35.0563H46.2575L44.5824 32.3037L44.0211 35.0563H42.6123L43.6284 30.0492H44.8043L46.4882 32.7886L47.0407 30.0492L48.4606 30.0426Z" fill="white"/>
<path d="M50.5086 31.1655H48.9556L49.1885 30.0426H53.7434L53.5104 31.1655H51.9574L51.1542 35.0563H49.7166L50.5086 31.1655Z" fill="white"/>
<path d="M56.8362 34.0776H54.6709L54.0829 35.0563H52.5698L55.8312 30.0492H57.2467L58.4714 35.0563H57.0403L56.8362 34.0776ZM56.6144 33.0334L56.2727 31.4102L55.2987 33.0334H56.6144Z" fill="white"/>
<path d="M59.756 34.9994C59.4292 34.9213 59.1175 34.7914 58.833 34.6149L59.401 33.5554C59.6555 33.7161 59.9319 33.8404 60.2219 33.9246C60.505 34.0067 60.7986 34.0486 61.0938 34.0491C61.314 34.0601 61.5337 34.0197 61.735 33.9311C61.7997 33.9035 61.8551 33.8582 61.8944 33.8004C61.9337 33.7427 61.9554 33.6751 61.9568 33.6056C61.9546 33.5438 61.9335 33.484 61.8963 33.4342C61.8591 33.3843 61.8075 33.3466 61.7483 33.326C61.5408 33.2345 61.3255 33.1614 61.1049 33.1075C60.8263 33.0384 60.5528 32.9509 60.2862 32.8454C60.0677 32.7579 59.8742 32.6192 59.7227 32.4412C59.5577 32.2396 59.4733 31.9855 59.4853 31.7269C59.4789 31.3894 59.584 31.0589 59.7848 30.7853C60.0024 30.5022 60.297 30.2855 60.6345 30.1605C61.0464 30.0056 61.485 29.9313 61.9258 29.9421C62.2685 29.9397 62.6103 29.9771 62.9441 30.0535C63.2308 30.117 63.5056 30.2247 63.7583 30.3724L63.2347 31.4232C63.0289 31.2961 62.8044 31.2011 62.5692 31.1414C62.3285 31.0765 62.0799 31.0441 61.8304 31.0453C61.6004 31.034 61.3714 31.0807 61.1648 31.1807C61.0951 31.2107 61.0355 31.2594 60.9927 31.3212C60.95 31.383 60.9258 31.4555 60.9229 31.5303C60.924 31.5935 60.9448 31.6549 60.9825 31.7061C61.0202 31.7573 61.073 31.7958 61.1337 31.8164C61.3439 31.9089 61.5622 31.982 61.786 32.0349C62.0642 32.1 62.3377 32.1832 62.6047 32.2839C62.8191 32.3689 63.0095 32.5038 63.1593 32.6772C63.3211 32.8726 63.4041 33.12 63.3923 33.3719C63.3982 33.707 63.2922 34.0347 63.0905 34.3047C62.87 34.5882 62.5734 34.8054 62.2341 34.9317C61.8218 35.085 61.3835 35.1591 60.9429 35.1501C60.5423 35.1512 60.1432 35.1005 59.756 34.9994Z" fill="white"/>
<path d="M38.8011 24.8957C38.8011 24.9437 38.8011 24.9896 38.8011 25.0355H7.51855V22.0339C7.51855 21.6363 7.59811 21.2427 7.75267 20.8755C7.90723 20.5082 8.13377 20.1746 8.41934 19.8936C8.70491 19.6126 9.04391 19.3898 9.41698 19.2379C9.79004 19.0859 10.1899 19.0079 10.5936 19.0082H32.4337V19.0213C32.5646 19.0213 32.6955 19.0082 32.8286 19.0082C34.4123 19.0128 35.9297 19.6348 37.049 20.7381C38.1682 21.8414 38.7982 23.3362 38.8011 24.8957Z" fill="#EF0000"/>
<path d="M32.491 0.00873363C46.546 -0.393232 58.1161 10.8618 58.1161 24.7078V25.0355H52.2279V24.9831C52.2279 14.4271 43.4732 5.90278 32.7573 5.90278C32.6242 5.90278 31.719 5.90278 31.3684 5.92463H7.67578C7.93154 4.86319 8.4101 3.86621 9.08069 2.99784C9.75128 2.12947 10.5991 1.40893 11.5695 0.882573C12.6869 0.294837 13.9368 -0.00572352 15.2036 0.00873363H32.491Z" fill="#EF0000"/>
<path d="M48.6204 25.0267H42.5125V24.9743C42.5125 22.425 41.484 19.9801 39.6533 18.1774C37.8226 16.3748 35.3396 15.3621 32.7506 15.3621H14.569C13.8193 15.3684 13.0756 15.2311 12.3792 14.9579C11.9826 14.7968 11.5998 14.6046 11.2344 14.3834C9.44505 13.294 8.16824 11.5496 7.68457 9.53357H32.4266C32.5575 9.53357 32.6884 9.53357 32.8216 9.53357C36.965 9.53412 40.9424 11.1372 43.8971 13.9975C46.8517 16.8578 48.5472 20.7464 48.6181 24.8257C48.6204 24.8957 48.6204 24.9612 48.6204 25.0267Z" fill="#EF0000"/>
</g>
<defs>
<clipPath id="clip0_243_1139">
<rect width="63" height="35" fill="white" transform="translate(0.869141)"/>
</clipPath>
</defs>
</svg>
