<svg width="30" height="30" viewBox="0 0 30 30" fill="none" xmlns="http://www.w3.org/2000/svg">
<path d="M16.542 0.0018455C17.6366 -0.00235462 18.7311 0.00864599 19.8253 0.0348439L20.1163 0.0453433C20.4523 0.0573427 20.7838 0.0723419 21.1843 0.090341C22.7802 0.165337 23.8691 0.417324 24.8246 0.787805C25.8145 1.16879 26.6485 1.68476 27.4825 2.51872C28.245 3.26809 28.8351 4.17455 29.2119 5.17508C29.5823 6.13053 29.8343 7.22097 29.9093 8.81689C29.9273 9.21587 29.9423 9.54886 29.9543 9.88484L29.9633 10.1758C29.99 11.2696 30.0015 12.3636 29.9978 13.4577L29.9993 14.5766V16.5415C30.003 17.636 29.9915 18.7306 29.9648 19.8248L29.9558 20.1158C29.9438 20.4518 29.9288 20.7833 29.9108 21.1838C29.8358 22.7797 29.5808 23.8686 29.2119 24.8241C28.8364 25.8257 28.2461 26.7329 27.4825 27.4819C26.7324 28.2444 25.8255 28.8345 24.8246 29.2113C23.8691 29.5818 22.7802 29.8338 21.1843 29.9088C20.7838 29.9268 20.4523 29.9418 20.1163 29.9538L19.8253 29.9628C18.7311 29.9895 17.6366 30.001 16.542 29.9973L15.4231 29.9988H13.4597C12.3651 30.0025 11.2706 29.991 10.1763 29.9643L9.88536 29.9553C9.52929 29.9424 9.1733 29.9274 8.81741 29.9103C7.22149 29.8353 6.13255 29.5803 5.1756 29.2113C4.17468 28.8354 3.26805 28.2451 2.51924 27.4819C1.75584 26.7324 1.16514 25.8254 0.788325 24.8241C0.417844 23.8686 0.165857 22.7797 0.0908607 21.1838C0.074156 20.8279 0.0591566 20.4719 0.0458631 20.1158L0.0383637 19.8248C0.0107105 18.7306 -0.00179023 17.6361 0.000865457 16.5415V13.4577C-0.00332078 12.3636 0.00767983 11.2696 0.0338639 10.1758L0.0443633 9.88484C0.0563627 9.54886 0.0713619 9.21587 0.0893609 8.81689C0.164357 7.21947 0.416344 6.13203 0.786825 5.17508C1.16386 4.17406 1.75572 3.26785 2.52074 2.52022C3.26904 1.75638 4.17509 1.16515 5.1756 0.787805C6.13255 0.417324 7.21999 0.165337 8.81741 0.090341L9.88536 0.0453433L10.1763 0.0378439C11.2701 0.0102045 12.3641 -0.00229616 13.4582 0.000345684L16.542 0.0018455ZM15.0001 7.50146C14.0064 7.48741 13.0198 7.67099 12.0977 8.04153C11.1756 8.41208 10.3363 8.9622 9.62864 9.65993C8.92097 10.3577 8.35904 11.1891 7.97549 12.1059C7.59194 13.0227 7.39442 14.0065 7.39442 15.0003C7.39442 15.9941 7.59194 16.978 7.97549 17.8948C8.35904 18.8116 8.92097 19.643 9.62864 20.3407C10.3363 21.0385 11.1756 21.5886 12.0977 21.9591C13.0198 22.3297 14.0064 22.5132 15.0001 22.4992C16.9891 22.4992 18.8967 21.7091 20.3031 20.3026C21.7096 18.8962 22.4997 16.9886 22.4997 14.9996C22.4997 13.0106 21.7096 11.103 20.3031 9.69655C18.8967 8.2901 16.9891 7.50146 15.0001 7.50146ZM15.0001 10.5013C15.5978 10.4903 16.1918 10.5985 16.7472 10.8196C17.3026 11.0407 17.8085 11.3703 18.2351 11.7891C18.6617 12.2078 19.0007 12.7074 19.232 13.2587C19.4634 13.8099 19.5827 14.4017 19.5828 14.9996C19.5829 15.5974 19.4638 16.1893 19.2326 16.7406C19.0014 17.2919 18.6627 17.7916 18.2362 18.2105C17.8097 18.6294 17.304 18.9592 16.7486 19.1805C16.1932 19.4018 15.5993 19.5102 15.0016 19.4993C13.8082 19.4993 12.6636 19.0253 11.8198 18.1814C10.9759 17.3375 10.5018 16.193 10.5018 14.9996C10.5018 13.8062 10.9759 12.6616 11.8198 11.8178C12.6636 10.9739 13.8082 10.4998 15.0016 10.4998L15.0001 10.5013ZM22.8747 5.25158C22.3908 5.27094 21.9332 5.47679 21.5977 5.826C21.2621 6.17522 21.0748 6.64071 21.0748 7.12498C21.0748 7.60925 21.2621 8.07474 21.5977 8.42396C21.9332 8.77317 22.3908 8.97902 22.8747 8.99838C23.3719 8.99838 23.8488 8.80085 24.2005 8.44924C24.5521 8.09762 24.7496 7.62074 24.7496 7.12348C24.7496 6.62622 24.5521 6.14934 24.2005 5.79772C23.8488 5.44611 23.3719 5.24858 22.8747 5.24858V5.25158Z" fill="white"/>
</svg>
