<svg width="16" height="20" viewBox="0 0 16 20" fill="none" xmlns="http://www.w3.org/2000/svg">
<path d="M8.26953 0C6.28113 0.00234577 4.37484 0.793275 2.96883 2.19929C1.56281 3.6053 0.771885 5.51159 0.769539 7.49999C0.767158 9.12492 1.29793 10.7058 2.28045 12C2.28045 12 2.48499 12.2693 2.5184 12.3082L8.26953 19.0909L14.0234 12.3048C14.0534 12.2686 14.2586 12 14.2586 12L14.2593 11.9979C15.2413 10.7043 15.7719 9.12417 15.7695 7.49999C15.7672 5.51159 14.9762 3.6053 13.5702 2.19929C12.1642 0.793275 10.2579 0.00234577 8.26953 0ZM8.26953 10.2273C7.73013 10.2273 7.20284 10.0673 6.75434 9.76764C6.30584 9.46796 5.95628 9.04202 5.74986 8.54367C5.54344 8.04533 5.48943 7.49697 5.59467 6.96793C5.6999 6.43889 5.95964 5.95294 6.34106 5.57152C6.72248 5.19011 7.20843 4.93036 7.73747 4.82513C8.26651 4.71989 8.81487 4.7739 9.31321 4.98032C9.81155 5.18674 10.2375 5.53631 10.5372 5.9848C10.8368 6.4333 10.9968 6.96059 10.9968 7.49999C10.9959 8.22303 10.7083 8.9162 10.197 9.42747C9.68574 9.93873 8.99257 10.2264 8.26953 10.2273Z" fill="#EF0000"/>
</svg>
