<svg width="20" height="17" viewBox="0 0 20 17" fill="none" xmlns="http://www.w3.org/2000/svg">
<path d="M18.3691 14C18.7544 14.0002 19.1247 14.1486 19.4035 14.4144C19.6823 14.6802 19.8482 15.0431 19.8667 15.4279C19.8852 15.8127 19.7549 16.1898 19.503 16.4812C19.251 16.7726 18.8966 16.9558 18.5131 16.993L18.3691 17H2.36914C1.98392 16.9998 1.61355 16.8514 1.33475 16.5856C1.05596 16.3198 0.890129 15.9569 0.871616 15.5721C0.853104 15.1873 0.983332 14.8102 1.23532 14.5188C1.4873 14.2274 1.84172 14.0442 2.22514 14.007L2.36914 14H18.3691ZM18.3691 7C18.767 7 19.1485 7.15804 19.4298 7.43934C19.7111 7.72064 19.8691 8.10218 19.8691 8.5C19.8691 8.89782 19.7111 9.27936 19.4298 9.56066C19.1485 9.84196 18.767 10 18.3691 10H2.36914C1.97132 10 1.58979 9.84196 1.30848 9.56066C1.02718 9.27936 0.869141 8.89782 0.869141 8.5C0.869141 8.10218 1.02718 7.72064 1.30848 7.43934C1.58979 7.15804 1.97132 7 2.36914 7H18.3691ZM18.3691 0C18.767 0 19.1485 0.158035 19.4298 0.43934C19.7111 0.720644 19.8691 1.10218 19.8691 1.5C19.8691 1.89782 19.7111 2.27936 19.4298 2.56066C19.1485 2.84196 18.767 3 18.3691 3H2.36914C1.97132 3 1.58979 2.84196 1.30848 2.56066C1.02718 2.27936 0.869141 1.89782 0.869141 1.5C0.869141 1.10218 1.02718 0.720644 1.30848 0.43934C1.58979 0.158035 1.97132 0 2.36914 0H18.3691Z" fill="white"/>
</svg>
