<svg xmlns="http://www.w3.org/2000/svg" xmlns:xlink="http://www.w3.org/1999/xlink" xmlns:serif="http://www.serif.com/" viewBox="0 0 32 40" version="1.1" xml:space="preserve" style="" x="0px" y="0px" fill-rule="evenodd" clip-rule="evenodd" stroke-linejoin="round" stroke-miterlimit="2"><path d="M26.974,22.572c-0.676,-3.246 -3.537,-5.572 -6.853,-5.572c-2.558,0 -5.684,0 -8.242,0c-3.316,-0 -6.177,2.326 -6.853,5.572l-0.96,4.609c-0.195,0.934 0.042,1.907 0.644,2.648c0.603,0.741 1.507,1.171 2.462,1.171l17.656,0c0.955,-0 1.859,-0.43 2.462,-1.171c0.602,-0.741 0.839,-1.714 0.644,-2.648l-0.96,-4.609Zm-1.958,0.408l0.96,4.608c0.072,0.346 -0.015,0.705 -0.238,0.979c-0.223,0.274 -0.557,0.433 -0.91,0.433c0,0 -17.656,0 -17.656,0c-0.353,-0 -0.687,-0.159 -0.91,-0.433c-0.223,-0.274 -0.31,-0.633 -0.238,-0.979c-0,0 0.96,-4.608 0.96,-4.608c0.483,-2.318 2.526,-3.98 4.895,-3.98c2.558,0 5.684,0 8.242,-0c2.369,-0 4.412,1.662 4.895,3.98Zm-9.016,-21.98c-3.863,0 -7,3.137 -7,7c-0,3.863 3.137,7 7,7c3.863,0 7,-3.137 7,-7c0,-3.863 -3.137,-7 -7,-7Zm-0,2c2.76,0 5,2.24 5,5c0,2.76 -2.24,5 -5,5c-2.76,0 -5,-2.24 -5,-5c-0,-2.76 2.24,-5 5,-5Z"/><text x="0" y="47" fill="#000000" font-size="5px" font-weight="bold" font-family="'Helvetica Neue', Helvetica, Arial-Unicode, Arial, Sans-serif">Created by Hary Murdiono JS</text><text x="0" y="52" fill="#000000" font-size="5px" font-weight="bold" font-family="'Helvetica Neue', Helvetica, Arial-Unicode, Arial, Sans-serif">from the Noun Project</text></svg>